<?xml version="1.0" encoding="UTF-8"?>
<svg id="Layer_1" data-name="Layer 1" xmlns="http://www.w3.org/2000/svg" viewBox="0 0 1318.77 462.24">
  <defs>
    <style>
      .cls-1 {
        fill: #b16a40;
      }

      .cls-2, .cls-3, .cls-4 {
        fill: #372c2a;
      }

      .cls-5, .cls-6 {
        fill: #f9f9fa;
      }

      .cls-7 {
        fill: #e1c4aa;
      }

      .cls-8 {
        fill: #bf9255;
      }

      .cls-3 {
        font-size: 18.88px;
      }

      .cls-3, .cls-4, .cls-6 {
        font-family: Champagne&Limousines, 'Champagne & Limousines';
      }

      .cls-9 {
        fill: #563a2d;
      }

      .cls-4, .cls-6 {
        font-size: 36.8px;
      }

      .cls-10 {
        fill: #e0ab78;
      }

      .cls-11 {
        letter-spacing: -.06em;
      }

      .cls-12 {
        fill: #fff;
        font-family: ArialMT, Arial;
        font-size: 10px;
      }
    </style>
  </defs>
  <g>
    <text class="cls-6" transform="translate(1111.33 329.19)"><tspan x="0" y="0">aesthetic clinic</tspan></text>
    <g>
      <path class="cls-5" d="M1157.82,191.72v5.77h-45.21v42.33h45.21v5.77h-45.21v42.33h45.21v5.77h-50.98v-101.97h50.98Z"/>
      <path class="cls-5" d="M1179.6,191.72v101.97h-5.77v-101.97h5.77Z"/>
      <path class="cls-5" d="M1203,210.62c1.13,1.11,1.7,2.43,1.7,3.97,0,1.63-.57,3-1.7,4.11-1.13,1.11-2.46,1.66-4,1.66s-2.95-.55-4.07-1.66c-1.13-1.11-1.69-2.48-1.69-4.11,0-1.54.56-2.86,1.69-3.97,1.13-1.11,2.49-1.66,4.07-1.66s2.87.55,4,1.66ZM1201.81,231.1v62.59h-5.7v-62.59h5.7Z"/>
      <path class="cls-5" d="M1225.41,251.5l.06-47.01h5.7l-.06,47.01h37.02v5.77h-37.02l.06,36.42h-5.7l-.06-36.42h-12.76v-5.77h12.76Z"/>
      <path class="cls-5" d="M1256.25,257.27c-.14,1.01-.22,2.09-.22,3.24,0,7.98,2.82,14.78,8.47,20.41,5.65,5.63,12.46,8.44,20.44,8.44s14.81-2.84,20.48-8.51c.96-.96,1.88-1.97,2.74-3.03l6.13,2.16c-.72,1.2-2.23,2.93-4.54,5.19-6.83,6.87-15.1,10.31-24.81,10.31s-17.85-3.43-24.7-10.27c-6.85-6.85-10.28-15.08-10.28-24.7s3.43-17.98,10.28-24.81c6.85-6.83,15.08-10.24,24.7-10.24s17.98,3.41,24.81,10.24c6.01,6.06,9.01,13.25,9.01,21.56h-62.52ZM1257.34,251.43h54.95c-1.35-4.37-3.63-8.17-6.85-11.39-5.67-5.67-12.5-8.51-20.48-8.51s-14.81,2.84-20.48,8.51c-3.37,3.41-5.75,7.21-7.14,11.39Z"/>
    </g>
    <g>
      <path class="cls-5" d="M1066.57,185c-.64.77-1.25,1.5-1.82,2.2s-1.18,1.37-1.82,2.01c-3.2,3.96-6.45,7.79-9.77,11.5-3.32,3.7-6.84,7.34-10.54,10.92-3.2,3.07-6.49,5.97-9.87,8.72-3.39,2.75-6.93,5.27-10.64,7.57-2.68,1.66-5.46,3.13-8.34,4.41-2.87,1.28-5.85,2.23-8.91,2.87-2.43.64-4.86,1.05-7.28,1.25-2.43.19-4.92.1-7.47-.29-5.62-.77-10.41-3.13-14.37-7.09-2.17-2.17-4.02-4.57-5.56-7.19-1.53-2.62-2.81-5.4-3.83-8.34-1.28-3.45-2.11-6.93-2.49-10.44-.38-3.51-.45-7.06-.19-10.63.26-4.86.9-9.58,1.92-14.18,1.02-4.6,2.3-9.13,3.83-13.61,4.09-11.75,9.1-22.87,15.04-33.34,5.94-10.47,13.06-20.31,21.37-29.51,6.9-7.67,14.4-14.37,22.52-20.12,8.11-5.75,16.96-10.47,26.54-14.18,10.86-4.09,21.97-6.32,33.34-6.71,3.83-.13,7.6.07,11.31.58,3.7.51,7.34,1.47,10.92,2.87,14.43,5.62,23.19,15.97,26.25,31.04,1.02,4.6,1.34,9.1.96,13.51-.38,4.41-1.15,8.85-2.3,13.32-1.92,6.9-4.73,13.6-8.43,20.12-3.2,5.62-6.77,10.86-10.73,15.71-3.96,4.86-8.37,9.33-13.22,13.41-1.15.89-1.79,1.98-1.92,3.26-.26,1.53-.57,3.04-.96,4.5-.38,1.47-.77,2.97-1.15,4.5v1.15c.64.13,1.12.06,1.44-.19.32-.26.67-.51,1.05-.77,4.47-2.81,8.91-5.62,13.32-8.43,4.41-2.81,8.85-5.62,13.32-8.43,2.17-1.4,4.41-2.71,6.71-3.93s4.6-2.46,6.9-3.74c.64-.38,1.31-.73,2.01-1.05.7-.32,1.37-.61,2.01-.86.51-.26,1.28-.51,2.3-.77,1.15-.26,1.85.13,2.11,1.15.26.9,0,1.6-.77,2.11-.26.26-.64.51-1.15.77-2.56,1.15-5.05,2.46-7.47,3.93-2.43,1.47-4.92,2.91-7.47,4.31-5.75,3.32-11.37,6.71-16.86,10.16-5.49,3.45-10.92,7.02-16.29,10.73-.26.26-.45.38-.57.38-1.53.64-2.49,1.98-2.87,4.02-.51,2.3-1.02,4.6-1.53,6.9-.51,2.3-1.09,4.6-1.72,6.9-2.05,8.43-4.12,16.83-6.23,25.2-2.11,8.37-4.5,16.7-7.19,25.01-2.43,7.15-5.11,13.99-8.05,20.5-2.04,4.47-4.31,8.75-6.8,12.84-2.49,4.09-5.34,7.98-8.53,11.69-2.3,2.68-4.79,5.17-7.47,7.47-2.81,2.55-5.88,4.5-9.2,5.84-3.32,1.34-6.84,2.27-10.54,2.78-5.11.51-10.03-.38-14.76-2.68-3.83-1.92-6.71-4.44-8.62-7.57-1.92-3.13-3.07-6.74-3.45-10.83-.26-2.81-.16-5.56.29-8.24.45-2.68,1.12-5.37,2.01-8.05,1.53-4.86,3.48-9.42,5.85-13.7,2.36-4.28,5.01-8.46,7.95-12.55,3.19-4.22,6.54-8.27,10.06-12.17,3.51-3.9,7.19-7.7,11.02-11.4,7.28-6.77,14.72-13.19,22.32-19.26,7.6-6.07,15.43-11.98,23.47-17.73l5.75-4.02c.89-.64,1.4-1.34,1.53-2.11l2.3-10.35c0-.13-.03-.29-.1-.48-.07-.19-.1-.41-.1-.67-.64.26-1.47.64-2.49,1.15-3.32,1.92-6.58,3.39-9.77,4.41-2.43.9-5.17,1.53-8.24,1.92-1.41.26-2.78.32-4.12.19-1.34-.13-2.72-.51-4.12-1.15l.38.96ZM1102.22,166.42h.77l1.73-1.73c8.3-7.92,15.2-17.05,20.7-27.4,3.07-5.87,5.37-12.14,6.9-18.78,1.02-4.22,1.53-8.4,1.53-12.55s-.57-8.34-1.73-12.55c-2.94-10.47-9.26-18.14-18.97-23-3.07-1.53-6.26-2.65-9.58-3.35-3.32-.7-6.71-1.18-10.16-1.44-7.16-.38-14.37.32-21.65,2.11-9.84,2.3-19,5.72-27.5,10.25-8.5,4.54-16.51,10.19-24.05,16.96-5.37,4.73-10.25,9.77-14.66,15.14-4.41,5.36-8.46,11.11-12.17,17.25-4.73,7.67-8.91,15.49-12.55,23.48-3.64,7.99-6.61,16.32-8.91,25.01-1.28,4.86-2.14,9.68-2.59,14.47-.45,4.79-.29,9.61.48,14.47.9,6.39,3.19,12.14,6.9,17.25,3.96,5.49,9.26,8.43,15.91,8.81,3.96.13,7.86-.26,11.69-1.15,2.94-.64,5.68-1.57,8.24-2.78,2.55-1.22,5.11-2.59,7.67-4.12,3.57-2.18,6.96-4.54,10.16-7.09,3.19-2.56,6.26-5.3,9.2-8.24,3.45-3.32,6.77-6.77,9.96-10.35,3.19-3.58,6.32-7.22,9.39-10.92,6.39-7.79,12.55-15.68,18.49-23.67,5.94-7.98,11.79-16.13,17.53-24.43l11.5-16.1,1.73-2.3c.64-.64,1.34-.77,2.11-.38.77.38,1.15.96,1.15,1.72,0,.64-.13,1.6-.38,2.88-.51,2.3-.99,4.6-1.44,6.9-.45,2.3-.86,4.6-1.25,6.9-.64,3.58-1.25,7.12-1.82,10.64-.57,3.51-1.18,7.06-1.82,10.64-.26,1.41-.51,2.78-.77,4.12-.26,1.34-.51,2.72-.77,4.12l-.96-.77ZM1090.14,196.12c-.64.38-1.15.73-1.53,1.05-.38.32-.77.61-1.15.86-12.14,8.43-23.83,17.44-35.07,27.02-5.24,4.47-10.25,9.07-15.04,13.8-4.79,4.73-9.29,9.77-13.51,15.14-4.09,5.11-7.67,10.41-10.73,15.91-1.53,2.81-2.91,5.68-4.12,8.62-1.22,2.94-2.14,6-2.78,9.2-.38,2.17-.64,4.28-.77,6.32-.13,2.04.06,4.15.57,6.32,1.15,5.24,4.02,9.07,8.62,11.5,3.07,1.66,6.13,2.49,9.2,2.49,7.67.26,14.56-2.04,20.7-6.9,3.19-2.43,6.07-5.3,8.62-8.62,2.43-3.07,4.66-6.23,6.71-9.49,2.04-3.26,3.96-6.68,5.75-10.25,2.55-5.24,4.79-10.51,6.71-15.81,1.92-5.3,3.7-10.76,5.37-16.38,2.3-8.05,4.44-16.07,6.42-24.05,1.98-7.99,3.86-16,5.65-24.05.13-.38.19-.77.19-1.15s.06-.89.19-1.53ZM1104.9,133.07c-.38,0-.64.13-.77.38-.13.26-.32.51-.58.77-10.35,15.59-21.27,30.73-32.77,45.42-.26.26-.51.57-.77.96-.26.38-.51.77-.77,1.15,1.02.26,1.66.38,1.92.38,1.4.13,2.75.1,4.02-.1,1.28-.19,2.55-.41,3.83-.67,2.94-.64,5.78-1.63,8.53-2.97,2.75-1.34,5.4-2.84,7.95-4.5.89-.51,1.47-1.4,1.72-2.68.38-1.92.8-3.83,1.25-5.75.45-1.92.86-3.83,1.25-5.75.89-4.09,1.72-8.11,2.49-12.07.77-3.96,1.53-7.98,2.3-12.07.13-.51.19-1.28.19-2.3v-.57.57l.19-.19Z"/>
      <path class="cls-5" d="M1145.81,160.86c3-12.01,6.16-24.08,9.49-36.22,1.53-5.87,3.26-11.66,5.17-17.34,1.92-5.68,3.83-11.4,5.75-17.15,2.81-8.81,6.26-17.44,10.35-25.87.25-.64.54-1.21.86-1.72.32-.51.67-1.02,1.05-1.53.77-.89,1.56-1.24,2.39-1.05.83.19,1.44.86,1.82,2.01.38,1.15.57,2.3.57,3.45.13,1.92.06,3.8-.19,5.65-.26,1.85-.51,3.67-.77,5.46-.77,5.36-1.92,10.57-3.45,15.62-1.53,5.05-3.19,10.06-4.98,15.04-1.79,4.6-3.67,9.14-5.65,13.61-1.98,4.47-4.06,8.94-6.23,13.41l-7.47,16.1c-1.02,2.05-1.79,4.02-2.3,5.94-1.02,4.47-2.11,8.98-3.26,13.51-1.15,4.54-2.24,9.04-3.26,13.51-1.02,4.09-2.9-10.41.1-22.42ZM1179.25,66.77c-.51.77-.83,1.34-.96,1.72-3.32,8.56-6.2,17.05-8.62,25.49-1.79,6.13-3.61,12.26-5.46,18.4-1.85,6.13-3.61,12.33-5.27,18.59l-.57,2.87c.77-.77,1.34-1.66,1.73-2.68,1.02-2.42,2.11-4.79,3.26-7.09,1.15-2.3,2.23-4.66,3.26-7.09,2.17-5.24,4.18-10.47,6.04-15.71,1.85-5.24,3.48-10.6,4.89-16.1.77-2.94,1.37-5.94,1.82-9.01.45-3.07.6-6.26.48-9.58l-.57.19Z"/>
      <path class="cls-5" d="M1176.18,156.07c1.66-2.04,3.26-2.68,4.79-1.92,1.53.64,2.3,2.05,2.3,4.22.13,1.15.1,2.3-.1,3.45-.19,1.15-.42,2.3-.67,3.45l-.38,2.11c2.43-.38,4.66-1.15,6.71-2.3,2.04-1.15,3.83-2.33,5.37-3.55,1.53-1.21,2.84-2.4,3.93-3.55,1.08-1.15,1.88-1.92,2.4-2.3.64-.51,1.37-.61,2.2-.29.83.32.99.99.48,2.01-.38.77-1.22,1.85-2.49,3.26-1.28,1.41-2.94,2.87-4.98,4.41-2.04,1.53-4.34,2.97-6.9,4.31-2.56,1.34-5.3,2.27-8.24,2.78-.64,1.02-1.28,2.04-1.92,3.07-.64,1.02-1.28,2.04-1.92,3.07-.9,1.41-2.04,2.81-3.45,4.22-.9.9-1.92,1.53-3.07,1.92-2.68,1.02-4.72.32-6.13-2.11-1.02-1.66-1.53-3.38-1.53-5.17-.26-6.64,1.15-12.77,4.22-18.4.51-.89,1.22-1.79,2.11-2.68,2.04-1.53,3.77-1.08,5.17,1.34,0,.13.13.45.38.96l1.73-2.3ZM1175.61,171.78l-.38-.38c-2.05-1.02-3.07-2.94-3.07-5.75v-1.15c0-.26.03-.45.1-.57.06-.13-.1-.26-.48-.38-1.02,2.18-1.79,4.34-2.3,6.52-.51,2.17-.96,4.34-1.34,6.52-.13.51-.19,1.02-.19,1.53s.19,1.09.57,1.73c1.79-1.02,3.16-2.23,4.12-3.64.96-1.4,1.95-2.81,2.97-4.22v-.19ZM1179.44,157.41c-.38,0-.57.07-.57.19-1.41,1.79-2.43,3.9-3.07,6.32-.13.38-.16.8-.1,1.24.06.45.1.93.1,1.44,0,.64.38,1.03,1.15,1.15.51.13.89-.06,1.15-.57,1.28-2.94,1.92-5.75,1.92-8.43,0-.26-.13-.64-.38-1.15l-.19-.19Z"/>
      <path class="cls-5" d="M1227.54,182.51c.26,0,.64-.29,1.15-.86.51-.57,1.02-1.21,1.53-1.92.51-.7.99-1.4,1.44-2.11.45-.7.73-1.18.86-1.44,2.81-4.22,5.3-8.62,7.48-13.22,1.28-2.68,2.49-5.36,3.64-8.05,1.15-2.68,2.3-5.37,3.45-8.05.26-.77.51-1.28.77-1.53.51-.64,1.12-.89,1.82-.77.7.13,1.18.51,1.44,1.15.13.26.19.55.19.86s.06.61.19.86c.89,3.2,2.17,5.81,3.83,7.86,2.68,3.71,6.26,5.05,10.73,4.02.89-.26,1.75-.54,2.59-.86.83-.32,1.69-.61,2.59-.86.51-.26.99-.48,1.44-.67.45-.19.92-.41,1.44-.67.77-.26,1.47-.38,2.11-.38.64.13,1.12.51,1.44,1.15.32.64.29,1.28-.1,1.92-.26.51-.51.83-.77.96-2.18,1.15-4.31,2.14-6.42,2.97-2.11.83-4.38,1.18-6.8,1.05-4.47-.26-7.99-1.98-10.54-5.17-.77-1.02-1.47-2.04-2.11-3.07-.64-1.02-1.34-2.04-2.11-3.07-.38.38-.64.83-.77,1.34-.13.51-.32,1.03-.57,1.53-1.79,4.09-3.64,8.14-5.56,12.17-1.92,4.02-3.96,7.95-6.13,11.79l-2.87,4.6c-.38.51-1.09,1.28-2.11,2.3-1.28,1.15-2.65,1.73-4.12,1.73s-2.85-.64-4.12-1.92c-.89-.77-1.57-1.66-2.01-2.68-.45-1.02-.86-2.04-1.25-3.07l-1.15-4.02c-.51,0-.83.16-.96.48-.13.32-.32.61-.57.86-1.53,2.17-3.04,4.28-4.5,6.32-1.47,2.04-2.97,4.15-4.5,6.32-.64.89-1.34,1.75-2.11,2.59-.77.83-1.53,1.69-2.3,2.59-.77.89-1.66,1.66-2.68,2.3-1.28.64-2.49.8-3.64.48-1.15-.32-2.04-1.12-2.68-2.4-.64-1.15-1.02-2.3-1.15-3.45-.64-3.45-.77-6.71-.38-9.77.9-10.73,3.39-21.08,7.47-31.04.38-1.02.89-2.11,1.53-3.26.38-.64.89-1.15,1.53-1.53,1.53-1.15,2.55-.7,3.07,1.34.13.51.26,1.03.38,1.53.13.51.13,1.02,0,1.53-.38,1.79-.83,3.61-1.34,5.46-.51,1.85-1.02,3.67-1.53,5.46-.77,3.45-1.5,6.87-2.2,10.25-.7,3.39-1.44,6.8-2.2,10.25-.77,2.81-1.02,5.87-.77,9.2,0,1.28.35,1.79,1.05,1.53.7-.26,1.5-.8,2.4-1.63.89-.83,1.72-1.76,2.49-2.78.77-1.02,1.28-1.66,1.53-1.92,1.92-2.68,3.77-5.4,5.56-8.14,1.79-2.74,3.58-5.46,5.37-8.14.26-.38.45-.8.57-1.25.13-.45.32-.86.57-1.24.64-1.02,1.44-1.56,2.4-1.63.96-.06,1.75.41,2.4,1.44.25.51.48,1.02.67,1.53.19.51.41,1.09.67,1.72l2.3,9.2c.13.26.22.64.29,1.15.06.51.29.77.67.77Z"/>
    </g>
  </g>
  <g>
    <text class="cls-3" transform="translate(82.06 125.58)"><tspan x="0" y="0">aesthetic clinic</tspan></text>
    <g>
      <path class="cls-9" d="M113.4,70.79v2.08h-16.34v15.3h16.34v2.08h-16.34v15.3h16.34v2.08h-18.42v-36.84h18.42Z"/>
      <path class="cls-9" d="M121.27,70.79v36.84h-2.08v-36.84h2.08Z"/>
      <path class="cls-9" d="M129.73,77.62c.41.4.61.88.61,1.43,0,.59-.2,1.09-.61,1.49-.41.4-.89.6-1.45.6s-1.06-.2-1.47-.6c-.41-.4-.61-.89-.61-1.49,0-.56.2-1.03.61-1.43.41-.4.9-.6,1.47-.6s1.04.2,1.45.6ZM129.3,85.02v22.62h-2.06v-22.62h2.06Z"/>
      <path class="cls-9" d="M137.82,92.39l.02-16.99h2.06l-.02,16.99h13.38v2.08h-13.38l.02,13.16h-2.06l-.02-13.16h-4.61v-2.08h4.61Z"/>
      <path class="cls-9" d="M148.97,94.48c-.05.36-.08.76-.08,1.17,0,2.88,1.02,5.34,3.06,7.37,2.04,2.03,4.5,3.05,7.39,3.05s5.35-1.02,7.4-3.07c.35-.35.68-.71.99-1.09l2.21.78c-.26.43-.81,1.06-1.64,1.88-2.47,2.48-5.46,3.73-8.96,3.73s-6.45-1.24-8.92-3.71c-2.48-2.48-3.71-5.45-3.71-8.92s1.24-6.5,3.71-8.96,5.45-3.7,8.92-3.7,6.5,1.23,8.96,3.7c2.17,2.19,3.26,4.79,3.26,7.79h-22.59ZM149.36,92.37h19.85c-.49-1.58-1.31-2.95-2.48-4.12-2.05-2.05-4.52-3.07-7.4-3.07s-5.35,1.03-7.4,3.07c-1.22,1.23-2.08,2.61-2.58,4.12Z"/>
    </g>
    <g>
      <path class="cls-8" d="M52.89,64.19c-.33.39-.64.77-.93,1.13s-.61.7-.93,1.03c-1.64,2.03-3.31,4-5.02,5.9-1.71,1.9-3.51,3.77-5.41,5.6-1.64,1.57-3.33,3.06-5.06,4.47-1.74,1.41-3.56,2.7-5.46,3.88-1.38.85-2.8,1.61-4.28,2.26-1.48.65-3,1.15-4.57,1.47-1.25.33-2.49.54-3.74.64-1.25.1-2.52.05-3.83-.15-2.89-.39-5.34-1.61-7.38-3.64-1.12-1.12-2.06-2.34-2.85-3.69-.79-1.34-1.44-2.77-1.97-4.28-.65-1.77-1.08-3.56-1.28-5.36-.2-1.8-.23-3.62-.1-5.46.13-2.49.46-4.92.98-7.28.53-2.36,1.18-4.69,1.97-6.98,2.1-6.03,4.67-11.73,7.72-17.11,3.05-5.38,6.7-10.42,10.96-15.14,3.54-3.93,7.39-7.38,11.55-10.33,4.16-2.95,8.7-5.38,13.62-7.28,5.57-2.1,11.27-3.25,17.11-3.44,1.97-.06,3.9.03,5.8.3,1.9.26,3.77.75,5.61,1.47,7.41,2.89,11.9,8.2,13.47,15.93.52,2.36.69,4.67.49,6.93-.2,2.26-.59,4.54-1.18,6.83-.98,3.54-2.43,6.98-4.33,10.33-1.64,2.89-3.48,5.57-5.51,8.06-2.03,2.49-4.29,4.79-6.79,6.88-.59.46-.92,1.02-.98,1.67-.13.79-.29,1.56-.49,2.31-.2.75-.39,1.52-.59,2.31v.59c.33.06.57.03.74-.1.16-.13.34-.26.54-.39,2.29-1.44,4.57-2.88,6.83-4.33,2.26-1.44,4.54-2.88,6.83-4.33,1.11-.72,2.26-1.39,3.44-2.02s2.36-1.26,3.54-1.92c.33-.2.67-.38,1.03-.54.36-.16.7-.31,1.03-.44.26-.13.65-.26,1.18-.39.59-.13.95.07,1.08.59.13.46,0,.82-.39,1.08-.13.13-.33.26-.59.39-1.31.59-2.59,1.26-3.83,2.02-1.25.75-2.52,1.49-3.83,2.21-2.95,1.71-5.84,3.44-8.65,5.21-2.82,1.77-5.61,3.6-8.36,5.51-.13.13-.23.2-.29.2-.79.33-1.28,1.02-1.48,2.07-.26,1.18-.53,2.36-.79,3.54-.26,1.18-.56,2.36-.88,3.54-1.05,4.33-2.11,8.64-3.2,12.93-1.08,4.29-2.31,8.57-3.69,12.83-1.25,3.67-2.62,7.18-4.13,10.52-1.05,2.29-2.21,4.49-3.49,6.59-1.28,2.1-2.74,4.1-4.38,6-1.18,1.38-2.46,2.66-3.84,3.83-1.44,1.31-3.02,2.31-4.72,3-1.71.69-3.51,1.16-5.41,1.43-2.62.26-5.15-.2-7.57-1.38-1.97-.98-3.44-2.28-4.43-3.88-.98-1.61-1.57-3.46-1.77-5.56-.13-1.44-.08-2.85.15-4.23.23-1.38.57-2.75,1.03-4.13.79-2.49,1.79-4.83,3-7.03,1.21-2.2,2.57-4.34,4.08-6.44,1.64-2.16,3.36-4.25,5.16-6.25,1.8-2,3.69-3.95,5.65-5.85,3.74-3.48,7.56-6.77,11.46-9.88,3.9-3.11,7.92-6.15,12.05-9.1l2.95-2.06c.46-.33.72-.69.79-1.08l1.18-5.31c0-.06-.02-.15-.05-.25-.03-.1-.05-.21-.05-.34-.33.13-.75.33-1.28.59-1.71.98-3.38,1.74-5.02,2.26-1.25.46-2.65.79-4.23.98-.72.13-1.43.16-2.11.1-.69-.07-1.39-.26-2.11-.59l.2.49ZM71.18,54.65h.39l.89-.89c4.26-4.06,7.8-8.75,10.62-14.06,1.57-3.01,2.75-6.23,3.54-9.64.52-2.16.79-4.31.79-6.44s-.29-4.28-.89-6.44c-1.51-5.38-4.75-9.31-9.74-11.8-1.57-.79-3.21-1.36-4.92-1.72-1.71-.36-3.44-.61-5.21-.74-3.67-.2-7.38.16-11.11,1.08-5.05,1.18-9.75,2.93-14.11,5.26-4.36,2.33-8.47,5.23-12.34,8.7-2.75,2.43-5.26,5.01-7.52,7.77-2.26,2.75-4.34,5.7-6.24,8.85-2.43,3.93-4.57,7.95-6.44,12.05-1.87,4.1-3.39,8.38-4.57,12.83-.65,2.49-1.1,4.97-1.33,7.42-.23,2.46-.15,4.93.25,7.42.46,3.28,1.64,6.23,3.54,8.85,2.03,2.82,4.75,4.33,8.16,4.52,2.03.06,4.03-.13,6-.59,1.51-.33,2.92-.8,4.23-1.43,1.31-.62,2.62-1.33,3.93-2.11,1.83-1.12,3.57-2.33,5.21-3.64,1.64-1.31,3.21-2.72,4.72-4.23,1.77-1.71,3.47-3.48,5.11-5.31,1.64-1.84,3.25-3.7,4.82-5.6,3.28-4,6.44-8.05,9.49-12.15,3.05-4.1,6.05-8.28,9-12.54l5.9-8.26.89-1.18c.33-.33.69-.39,1.08-.2.39.2.59.49.59.88,0,.33-.07.82-.2,1.48-.26,1.18-.51,2.36-.74,3.54-.23,1.18-.44,2.36-.64,3.54-.33,1.84-.64,3.66-.93,5.46-.29,1.8-.61,3.62-.93,5.46-.13.72-.26,1.43-.39,2.11-.13.69-.26,1.39-.39,2.11l-.49-.39ZM64.98,69.89c-.33.2-.59.38-.79.54-.2.16-.39.31-.59.44-6.23,4.33-12.23,8.95-18,13.87-2.69,2.29-5.26,4.65-7.72,7.08-2.46,2.42-4.77,5.02-6.93,7.77-2.1,2.62-3.93,5.34-5.51,8.16-.79,1.44-1.49,2.92-2.11,4.43-.62,1.51-1.1,3.08-1.43,4.72-.2,1.11-.33,2.2-.39,3.25-.07,1.05.03,2.13.29,3.25.59,2.69,2.07,4.65,4.43,5.9,1.57.85,3.15,1.28,4.72,1.28,3.93.13,7.47-1.05,10.62-3.54,1.64-1.25,3.11-2.72,4.43-4.42,1.24-1.57,2.39-3.2,3.44-4.87,1.05-1.67,2.03-3.43,2.95-5.26,1.31-2.69,2.46-5.39,3.44-8.11.98-2.72,1.9-5.52,2.75-8.41,1.18-4.13,2.28-8.25,3.29-12.34,1.02-4.1,1.98-8.21,2.9-12.34.06-.2.1-.39.1-.59s.03-.46.1-.79ZM72.55,37.54c-.2,0-.33.07-.39.2-.07.13-.16.26-.3.39-5.31,8-10.92,15.77-16.82,23.31-.13.13-.26.29-.39.49-.13.2-.26.39-.39.59.52.13.85.2.98.2.72.07,1.41.05,2.06-.05.65-.1,1.31-.21,1.97-.34,1.51-.33,2.97-.84,4.38-1.52,1.41-.69,2.77-1.46,4.08-2.31.46-.26.75-.72.88-1.38.2-.98.41-1.97.64-2.95.23-.98.44-1.97.64-2.95.46-2.1.88-4.16,1.28-6.2.39-2.03.79-4.1,1.18-6.2.06-.26.1-.65.1-1.18v-.29.29l.1-.1Z"/>
      <path class="cls-8" d="M84.94,94.58c.07-1.71.2-3.29.39-4.77.2-1.47.46-2.97.79-4.47.53-2.49,1.05-4.95,1.57-7.38.53-2.43,1.05-4.88,1.57-7.38,1.31-6.36,2.74-12.62,4.28-18.78s3.16-12.36,4.87-18.59c.79-3.01,1.67-5.98,2.65-8.9s1.97-5.85,2.95-8.8c1.44-4.52,3.21-8.95,5.31-13.28.13-.33.28-.62.44-.88.16-.26.34-.52.54-.79.39-.46.8-.64,1.23-.54.43.1.74.44.93,1.03.2.59.29,1.18.29,1.77.06.98.03,1.95-.1,2.9-.13.95-.26,1.88-.39,2.8-.39,2.75-.98,5.42-1.77,8.01s-1.64,5.16-2.56,7.72c-.92,2.36-1.89,4.69-2.9,6.98-1.02,2.29-2.08,4.59-3.2,6.88l-3.84,8.26c-.53,1.05-.92,2.07-1.18,3.05-.53,2.29-1.08,4.61-1.67,6.93-.59,2.33-1.15,4.64-1.67,6.93-.52,2.1-.98,4.16-1.38,6.2-.39,2.03-.85,4.1-1.38,6.2-.52,2.1-1.02,4.16-1.48,6.2-.46,2.03-.85,4.1-1.18,6.2-.13,1.05-.25,2.08-.34,3.1-.1,1.02-.21,2.05-.34,3.1-.13,1.31.03,2.46.49,3.44v.29c.13.52-.03.95-.49,1.28-.46.33-.89.33-1.28,0-.65-.39-1.05-.98-1.18-1.77-.06-.33-.1-.67-.1-1.03v-1.92h.1ZM110.71,3.52c-.26.39-.43.69-.49.88-1.71,4.39-3.18,8.75-4.43,13.08-.92,3.15-1.85,6.29-2.8,9.44-.95,3.15-1.85,6.33-2.7,9.54l-.29,1.47c.39-.39.69-.85.89-1.38.52-1.24,1.08-2.46,1.67-3.64s1.15-2.39,1.67-3.64c1.11-2.69,2.15-5.38,3.1-8.06.95-2.69,1.79-5.44,2.51-8.26.39-1.51.7-3.05.93-4.62.23-1.57.31-3.21.25-4.92l-.29.1Z"/>
      <path class="cls-8" d="M109.13,49.34c.85-1.05,1.67-1.38,2.46-.98.79.33,1.18,1.05,1.18,2.16.06.59.05,1.18-.05,1.77-.1.59-.21,1.18-.34,1.77l-.2,1.08c1.24-.2,2.39-.59,3.44-1.18,1.05-.59,1.97-1.2,2.75-1.82.79-.62,1.46-1.23,2.02-1.82.56-.59.97-.98,1.23-1.18.33-.26.7-.31,1.13-.15.43.16.51.51.25,1.03-.2.39-.62.95-1.28,1.67-.66.72-1.51,1.47-2.56,2.26-1.05.79-2.23,1.52-3.54,2.21-1.31.69-2.72,1.16-4.23,1.43-.33.53-.66,1.05-.98,1.57-.33.53-.66,1.05-.98,1.57-.46.72-1.05,1.44-1.77,2.16-.46.46-.98.79-1.57.98-1.38.52-2.42.16-3.15-1.08-.52-.85-.79-1.74-.79-2.66-.13-3.41.59-6.55,2.16-9.44.26-.46.62-.92,1.08-1.38,1.05-.79,1.93-.56,2.65.69,0,.07.06.23.2.49l.89-1.18ZM108.84,57.41l-.2-.2c-1.05-.52-1.57-1.51-1.57-2.95v-.59c0-.13.02-.23.05-.29.03-.06-.05-.13-.25-.2-.52,1.12-.92,2.23-1.18,3.34-.26,1.12-.49,2.23-.69,3.34-.06.26-.1.53-.1.79s.1.56.29.89c.92-.52,1.62-1.15,2.11-1.87.49-.72,1-1.44,1.52-2.16v-.1ZM110.8,50.03c-.2,0-.29.03-.29.1-.72.92-1.25,2-1.57,3.25-.07.2-.08.41-.05.64.03.23.05.48.05.74,0,.33.2.53.59.59.26.07.46-.03.59-.29.65-1.51.98-2.95.98-4.33,0-.13-.07-.33-.2-.59l-.1-.1Z"/>
      <path class="cls-8" d="M135.49,62.91c.13,0,.33-.15.59-.44.26-.29.52-.62.79-.98.26-.36.51-.72.74-1.08.23-.36.38-.61.44-.74,1.44-2.16,2.72-4.42,3.84-6.79.65-1.38,1.28-2.75,1.87-4.13s1.18-2.75,1.77-4.13c.13-.39.26-.66.39-.79.26-.33.57-.46.93-.39.36.07.61.26.74.59.06.13.1.28.1.44s.03.31.1.44c.46,1.64,1.11,2.98,1.97,4.03,1.38,1.9,3.21,2.59,5.51,2.07.46-.13.9-.28,1.33-.44.43-.16.87-.31,1.33-.44.26-.13.51-.25.74-.34.23-.1.47-.21.74-.34.39-.13.75-.2,1.08-.2.33.07.57.26.74.59.16.33.15.66-.05.98-.13.26-.26.43-.39.49-1.12.59-2.21,1.1-3.29,1.52-1.08.43-2.25.61-3.49.54-2.29-.13-4.1-1.02-5.41-2.66-.39-.52-.75-1.05-1.08-1.57-.33-.52-.69-1.05-1.08-1.57-.2.2-.33.43-.39.69-.07.26-.16.53-.29.79-.92,2.1-1.87,4.18-2.85,6.24-.98,2.07-2.03,4.08-3.15,6.05l-1.47,2.36c-.2.26-.56.65-1.08,1.18-.66.59-1.36.89-2.11.89s-1.46-.33-2.11-.98c-.46-.39-.8-.85-1.03-1.38-.23-.52-.44-1.05-.64-1.57l-.59-2.07c-.26,0-.43.08-.49.25-.07.16-.17.31-.29.44-.79,1.12-1.56,2.2-2.31,3.25-.75,1.05-1.52,2.13-2.31,3.25-.33.46-.69.9-1.08,1.33-.39.43-.79.87-1.18,1.33-.39.46-.85.85-1.38,1.18-.65.33-1.28.41-1.87.25-.59-.16-1.05-.58-1.38-1.23-.33-.59-.52-1.18-.59-1.77-.33-1.77-.39-3.44-.2-5.02.46-5.51,1.74-10.82,3.84-15.93.2-.52.46-1.08.79-1.67.2-.33.46-.59.79-.79.79-.59,1.31-.36,1.57.69.06.26.13.53.2.79.06.26.06.53,0,.79-.2.92-.43,1.85-.69,2.8-.26.95-.53,1.88-.79,2.8-.39,1.77-.77,3.53-1.13,5.26-.36,1.74-.74,3.49-1.13,5.26-.39,1.44-.52,3.01-.39,4.72,0,.65.18.92.54.79.36-.13.77-.41,1.23-.84.46-.43.88-.9,1.28-1.43.39-.53.65-.85.79-.98.98-1.38,1.93-2.77,2.85-4.18.92-1.41,1.83-2.8,2.75-4.18.13-.2.23-.41.29-.64.06-.23.16-.44.29-.64.33-.52.74-.8,1.23-.84.49-.03.9.21,1.23.74.13.26.25.53.34.79.1.26.21.56.34.88l1.18,4.72c.06.13.11.33.15.59.03.26.15.39.34.39Z"/>
    </g>
  </g>
  <g>
    <text class="cls-4" transform="translate(470.71 316.46)"><tspan x="0" y="0">aesthetic clinic</tspan></text>
    <g>
      <path class="cls-9" d="M517.2,178.99v5.77h-45.21v42.33h45.21v5.77h-45.21v42.33h45.21v5.77h-50.98v-101.97h50.98Z"/>
      <path class="cls-9" d="M538.98,178.99v101.97h-5.77v-101.97h5.77Z"/>
      <path class="cls-9" d="M562.38,197.89c1.13,1.11,1.7,2.43,1.7,3.97,0,1.63-.57,3-1.7,4.11-1.13,1.11-2.46,1.66-4,1.66s-2.95-.55-4.07-1.66c-1.13-1.11-1.69-2.48-1.69-4.11,0-1.54.56-2.86,1.69-3.97,1.13-1.11,2.49-1.66,4.07-1.66s2.87.55,4,1.66ZM561.19,218.37v62.59h-5.7v-62.59h5.7Z"/>
      <path class="cls-9" d="M584.79,238.77l.06-47.01h5.7l-.06,47.01h37.02v5.77h-37.02l.06,36.42h-5.7l-.06-36.42h-12.76v-5.77h12.76Z"/>
      <path class="cls-9" d="M615.63,244.54c-.14,1.01-.22,2.09-.22,3.24,0,7.98,2.82,14.78,8.47,20.41,5.65,5.63,12.46,8.44,20.44,8.44s14.81-2.84,20.48-8.51c.96-.96,1.88-1.97,2.74-3.03l6.13,2.16c-.72,1.2-2.23,2.93-4.54,5.19-6.83,6.87-15.1,10.31-24.81,10.31s-17.85-3.43-24.7-10.27c-6.85-6.85-10.28-15.08-10.28-24.7s3.43-17.98,10.28-24.81c6.85-6.83,15.08-10.24,24.7-10.24s17.98,3.41,24.81,10.24c6.01,6.06,9.01,13.25,9.01,21.56h-62.52ZM616.72,238.7h54.95c-1.35-4.37-3.63-8.17-6.85-11.39-5.67-5.67-12.5-8.51-20.48-8.51s-14.81,2.84-20.48,8.51c-3.37,3.41-5.75,7.21-7.14,11.39Z"/>
    </g>
    <g>
      <path class="cls-8" d="M425.95,172.27c-.64.77-1.25,1.5-1.82,2.2s-1.18,1.37-1.82,2.01c-3.2,3.96-6.45,7.79-9.77,11.5-3.32,3.7-6.84,7.34-10.54,10.92-3.2,3.07-6.49,5.97-9.87,8.72-3.39,2.75-6.93,5.27-10.64,7.57-2.68,1.66-5.46,3.13-8.34,4.41-2.87,1.28-5.85,2.23-8.91,2.87-2.43.64-4.86,1.05-7.28,1.25-2.43.19-4.92.1-7.47-.29-5.62-.77-10.41-3.13-14.37-7.09-2.17-2.17-4.02-4.57-5.56-7.19-1.53-2.62-2.81-5.4-3.83-8.34-1.28-3.45-2.11-6.93-2.49-10.44-.38-3.51-.45-7.06-.19-10.63.26-4.86.9-9.58,1.92-14.18,1.02-4.6,2.3-9.13,3.83-13.61,4.09-11.75,9.1-22.87,15.04-33.34,5.94-10.47,13.06-20.31,21.37-29.51,6.9-7.67,14.4-14.37,22.52-20.12,8.11-5.75,16.96-10.47,26.54-14.18,10.86-4.09,21.97-6.32,33.34-6.71,3.83-.13,7.6.07,11.31.58,3.7.51,7.34,1.47,10.92,2.87,14.43,5.62,23.19,15.97,26.25,31.04,1.02,4.6,1.34,9.1.96,13.51-.38,4.41-1.15,8.85-2.3,13.32-1.92,6.9-4.73,13.6-8.43,20.12-3.2,5.62-6.77,10.86-10.73,15.71-3.96,4.86-8.37,9.33-13.22,13.41-1.15.89-1.79,1.98-1.92,3.26-.26,1.53-.57,3.04-.96,4.5-.38,1.47-.77,2.97-1.15,4.5v1.15c.64.13,1.12.06,1.44-.19.32-.26.67-.51,1.05-.77,4.47-2.81,8.91-5.62,13.32-8.43,4.41-2.81,8.85-5.62,13.32-8.43,2.17-1.4,4.41-2.71,6.71-3.93s4.6-2.46,6.9-3.74c.64-.38,1.31-.73,2.01-1.05.7-.32,1.37-.61,2.01-.86.51-.26,1.28-.51,2.3-.77,1.15-.26,1.85.13,2.11,1.15.26.9,0,1.6-.77,2.11-.26.26-.64.51-1.15.77-2.56,1.15-5.05,2.46-7.47,3.93-2.43,1.47-4.92,2.91-7.47,4.31-5.75,3.32-11.37,6.71-16.86,10.16-5.49,3.45-10.92,7.02-16.29,10.73-.26.26-.45.38-.57.38-1.53.64-2.49,1.98-2.87,4.02-.51,2.3-1.02,4.6-1.53,6.9-.51,2.3-1.09,4.6-1.72,6.9-2.05,8.43-4.12,16.83-6.23,25.2-2.11,8.37-4.5,16.7-7.19,25.01-2.43,7.15-5.11,13.99-8.05,20.5-2.04,4.47-4.31,8.75-6.8,12.84-2.49,4.09-5.34,7.98-8.53,11.69-2.3,2.68-4.79,5.17-7.47,7.47-2.81,2.55-5.88,4.5-9.2,5.84-3.32,1.34-6.84,2.27-10.54,2.78-5.11.51-10.03-.38-14.76-2.68-3.83-1.92-6.71-4.44-8.62-7.57-1.92-3.13-3.07-6.74-3.45-10.83-.26-2.81-.16-5.56.29-8.24.45-2.68,1.12-5.37,2.01-8.05,1.53-4.86,3.48-9.42,5.85-13.7,2.36-4.28,5.01-8.46,7.95-12.55,3.19-4.22,6.54-8.27,10.06-12.17,3.51-3.9,7.19-7.7,11.02-11.4,7.28-6.77,14.72-13.19,22.32-19.26,7.6-6.07,15.43-11.98,23.47-17.73l5.75-4.02c.89-.64,1.4-1.34,1.53-2.11l2.3-10.35c0-.13-.03-.29-.1-.48-.07-.19-.1-.41-.1-.67-.64.26-1.47.64-2.49,1.15-3.32,1.92-6.58,3.39-9.77,4.41-2.43.9-5.17,1.53-8.24,1.92-1.41.26-2.78.32-4.12.19-1.34-.13-2.72-.51-4.12-1.15l.38.96ZM461.6,153.69h.77l1.73-1.73c8.3-7.92,15.2-17.05,20.7-27.4,3.07-5.87,5.37-12.14,6.9-18.78,1.02-4.22,1.53-8.4,1.53-12.55s-.57-8.34-1.73-12.55c-2.94-10.47-9.26-18.14-18.97-23-3.07-1.53-6.26-2.65-9.58-3.35-3.32-.7-6.71-1.18-10.16-1.44-7.16-.38-14.37.32-21.65,2.11-9.84,2.3-19,5.72-27.5,10.25-8.5,4.54-16.51,10.19-24.05,16.96-5.37,4.73-10.25,9.77-14.66,15.14-4.41,5.36-8.46,11.11-12.17,17.25-4.73,7.67-8.91,15.49-12.55,23.48-3.64,7.99-6.61,16.32-8.91,25.01-1.28,4.86-2.14,9.68-2.59,14.47-.45,4.79-.29,9.61.48,14.47.9,6.39,3.19,12.14,6.9,17.25,3.96,5.49,9.26,8.43,15.91,8.81,3.96.13,7.86-.26,11.69-1.15,2.94-.64,5.68-1.57,8.24-2.78,2.55-1.22,5.11-2.59,7.67-4.12,3.57-2.18,6.96-4.54,10.16-7.09,3.19-2.56,6.26-5.3,9.2-8.24,3.45-3.32,6.77-6.77,9.96-10.35,3.19-3.58,6.32-7.22,9.39-10.92,6.39-7.79,12.55-15.68,18.49-23.67,5.94-7.98,11.79-16.13,17.53-24.43l11.5-16.1,1.73-2.3c.64-.64,1.34-.77,2.11-.38.77.38,1.15.96,1.15,1.72,0,.64-.13,1.6-.38,2.88-.51,2.3-.99,4.6-1.44,6.9-.45,2.3-.86,4.6-1.25,6.9-.64,3.58-1.25,7.12-1.82,10.64-.57,3.51-1.18,7.06-1.82,10.64-.26,1.41-.51,2.78-.77,4.12-.26,1.34-.51,2.72-.77,4.12l-.96-.77ZM449.53,183.39c-.64.38-1.15.73-1.53,1.05-.38.32-.77.61-1.15.86-12.14,8.43-23.83,17.44-35.07,27.02-5.24,4.47-10.25,9.07-15.04,13.8-4.79,4.73-9.29,9.77-13.51,15.14-4.09,5.11-7.67,10.41-10.73,15.91-1.53,2.81-2.91,5.68-4.12,8.62-1.22,2.94-2.14,6-2.78,9.2-.38,2.17-.64,4.28-.77,6.32-.13,2.04.06,4.15.57,6.32,1.15,5.24,4.02,9.07,8.62,11.5,3.07,1.66,6.13,2.49,9.2,2.49,7.67.26,14.56-2.04,20.7-6.9,3.19-2.43,6.07-5.3,8.62-8.62,2.43-3.07,4.66-6.23,6.71-9.49,2.04-3.26,3.96-6.68,5.75-10.25,2.55-5.24,4.79-10.51,6.71-15.81,1.92-5.3,3.7-10.76,5.37-16.38,2.3-8.05,4.44-16.07,6.42-24.05,1.98-7.99,3.86-16,5.65-24.05.13-.38.19-.77.19-1.15s.06-.89.19-1.53ZM464.28,120.34c-.38,0-.64.13-.77.38-.13.26-.32.51-.58.77-10.35,15.59-21.27,30.73-32.77,45.42-.26.26-.51.57-.77.96-.26.38-.51.77-.77,1.15,1.02.26,1.66.38,1.92.38,1.4.13,2.75.1,4.02-.1,1.28-.19,2.55-.41,3.83-.67,2.94-.64,5.78-1.63,8.53-2.97,2.75-1.34,5.4-2.84,7.95-4.5.89-.51,1.47-1.4,1.72-2.68.38-1.92.8-3.83,1.25-5.75.45-1.92.86-3.83,1.25-5.75.89-4.09,1.72-8.11,2.49-12.07.77-3.96,1.53-7.98,2.3-12.07.13-.51.19-1.28.19-2.3v-.57.57l.19-.19Z"/>
      <path class="cls-8" d="M505.19,148.13c3-12.01,6.16-24.08,9.49-36.22,1.53-5.87,3.26-11.66,5.17-17.34,1.92-5.68,3.83-11.4,5.75-17.15,2.81-8.81,6.26-17.44,10.35-25.87.25-.64.54-1.21.86-1.72.32-.51.67-1.02,1.05-1.53.77-.89,1.56-1.24,2.39-1.05.83.19,1.44.86,1.82,2.01.38,1.15.57,2.3.57,3.45.13,1.92.06,3.8-.19,5.65-.26,1.85-.51,3.67-.77,5.46-.77,5.36-1.92,10.57-3.45,15.62-1.53,5.05-3.19,10.06-4.98,15.04-1.79,4.6-3.67,9.14-5.65,13.61-1.98,4.47-4.06,8.94-6.23,13.41l-7.47,16.1c-1.02,2.05-1.79,4.02-2.3,5.94-1.02,4.47-2.11,8.98-3.26,13.51-1.15,4.54-2.24,9.04-3.26,13.51-1.02,4.09-2.9-10.41.1-22.42ZM538.63,54.04c-.51.77-.83,1.34-.96,1.72-3.32,8.56-6.2,17.05-8.62,25.49-1.79,6.13-3.61,12.26-5.46,18.4-1.85,6.13-3.61,12.33-5.27,18.59l-.57,2.87c.77-.77,1.34-1.66,1.73-2.68,1.02-2.42,2.11-4.79,3.26-7.09,1.15-2.3,2.23-4.66,3.26-7.09,2.17-5.24,4.18-10.47,6.04-15.71,1.85-5.24,3.48-10.6,4.89-16.1.77-2.94,1.37-5.94,1.82-9.01.45-3.07.6-6.26.48-9.58l-.57.19Z"/>
      <path class="cls-8" d="M535.56,143.34c1.66-2.04,3.26-2.68,4.79-1.92,1.53.64,2.3,2.05,2.3,4.22.13,1.15.1,2.3-.1,3.45-.19,1.15-.42,2.3-.67,3.45l-.38,2.11c2.43-.38,4.66-1.15,6.71-2.3,2.04-1.15,3.83-2.33,5.37-3.55,1.53-1.21,2.84-2.4,3.93-3.55,1.08-1.15,1.88-1.92,2.4-2.3.64-.51,1.37-.61,2.2-.29.83.32.99.99.48,2.01-.38.77-1.22,1.85-2.49,3.26-1.28,1.41-2.94,2.87-4.98,4.41-2.04,1.53-4.34,2.97-6.9,4.31-2.56,1.34-5.3,2.27-8.24,2.78-.64,1.02-1.28,2.04-1.92,3.07-.64,1.02-1.28,2.04-1.92,3.07-.9,1.41-2.04,2.81-3.45,4.22-.9.9-1.92,1.53-3.07,1.92-2.68,1.02-4.72.32-6.13-2.11-1.02-1.66-1.53-3.38-1.53-5.17-.26-6.64,1.15-12.77,4.22-18.4.51-.89,1.22-1.79,2.11-2.68,2.04-1.53,3.77-1.08,5.17,1.34,0,.13.13.45.38.96l1.73-2.3ZM534.99,159.05l-.38-.38c-2.05-1.02-3.07-2.94-3.07-5.75v-1.15c0-.26.03-.45.1-.57.06-.13-.1-.26-.48-.38-1.02,2.18-1.79,4.34-2.3,6.52-.51,2.17-.96,4.34-1.34,6.52-.13.51-.19,1.02-.19,1.53s.19,1.09.57,1.73c1.79-1.02,3.16-2.23,4.12-3.64.96-1.4,1.95-2.81,2.97-4.22v-.19ZM538.82,144.68c-.38,0-.57.07-.57.19-1.41,1.79-2.43,3.9-3.07,6.32-.13.38-.16.8-.1,1.24.06.45.1.93.1,1.44,0,.64.38,1.03,1.15,1.15.51.13.89-.06,1.15-.57,1.28-2.94,1.92-5.75,1.92-8.43,0-.26-.13-.64-.38-1.15l-.19-.19Z"/>
      <path class="cls-8" d="M586.92,169.78c.26,0,.64-.29,1.15-.86.51-.57,1.02-1.21,1.53-1.92.51-.7.99-1.4,1.44-2.11.45-.7.73-1.18.86-1.44,2.81-4.22,5.3-8.62,7.48-13.22,1.28-2.68,2.49-5.36,3.64-8.05,1.15-2.68,2.3-5.37,3.45-8.05.26-.77.51-1.28.77-1.53.51-.64,1.12-.89,1.82-.77.7.13,1.18.51,1.44,1.15.13.26.19.55.19.86s.06.61.19.86c.89,3.2,2.17,5.81,3.83,7.86,2.68,3.71,6.26,5.05,10.73,4.02.89-.26,1.75-.54,2.59-.86.83-.32,1.69-.61,2.59-.86.51-.26.99-.48,1.44-.67.45-.19.92-.41,1.44-.67.77-.26,1.47-.38,2.11-.38.64.13,1.12.51,1.44,1.15.32.64.29,1.28-.1,1.92-.26.51-.51.83-.77.96-2.18,1.15-4.31,2.14-6.42,2.97-2.11.83-4.38,1.18-6.8,1.05-4.47-.26-7.99-1.98-10.54-5.17-.77-1.02-1.47-2.04-2.11-3.07-.64-1.02-1.34-2.04-2.11-3.07-.38.38-.64.83-.77,1.34-.13.51-.32,1.03-.57,1.53-1.79,4.09-3.64,8.14-5.56,12.17-1.92,4.02-3.96,7.95-6.13,11.79l-2.87,4.6c-.38.51-1.09,1.28-2.11,2.3-1.28,1.15-2.65,1.73-4.12,1.73s-2.85-.64-4.12-1.92c-.89-.77-1.57-1.66-2.01-2.68-.45-1.02-.86-2.04-1.25-3.07l-1.15-4.02c-.51,0-.83.16-.96.48-.13.32-.32.61-.57.86-1.53,2.17-3.04,4.28-4.5,6.32-1.47,2.04-2.97,4.15-4.5,6.32-.64.89-1.34,1.75-2.11,2.59-.77.83-1.53,1.69-2.3,2.59-.77.89-1.66,1.66-2.68,2.3-1.28.64-2.49.8-3.64.48-1.15-.32-2.04-1.12-2.68-2.4-.64-1.15-1.02-2.3-1.15-3.45-.64-3.45-.77-6.71-.38-9.77.9-10.73,3.39-21.08,7.47-31.04.38-1.02.89-2.11,1.53-3.26.38-.64.89-1.15,1.53-1.53,1.53-1.15,2.55-.7,3.07,1.34.13.51.26,1.03.38,1.53.13.51.13,1.02,0,1.53-.38,1.79-.83,3.61-1.34,5.46-.51,1.85-1.02,3.67-1.53,5.46-.77,3.45-1.5,6.87-2.2,10.25-.7,3.39-1.44,6.8-2.2,10.25-.77,2.81-1.02,5.87-.77,9.2,0,1.28.35,1.79,1.05,1.53.7-.26,1.5-.8,2.4-1.63.89-.83,1.72-1.76,2.49-2.78.77-1.02,1.28-1.66,1.53-1.92,1.92-2.68,3.77-5.4,5.56-8.14,1.79-2.74,3.58-5.46,5.37-8.14.26-.38.45-.8.57-1.25.13-.45.32-.86.57-1.24.64-1.02,1.44-1.56,2.4-1.63.96-.06,1.75.41,2.4,1.44.25.51.48,1.02.67,1.53.19.51.41,1.09.67,1.72l2.3,9.2c.13.26.22.64.29,1.15.06.51.29.77.67.77Z"/>
    </g>
  </g>
  <g>
    <rect class="cls-2" x="129.64" y="160.8" width="51.96" height="45.7"/>
    <text class="cls-12" transform="translate(136.47 199.87)"><tspan x="0" y="0">#372C2</tspan><tspan class="cls-11" x="35.03" y="0">A</tspan></text>
  </g>
  <g>
    <rect class="cls-9" x="129.64" y="211.51" width="51.96" height="45.7"/>
    <text class="cls-12" transform="translate(134.72 251.29)"><tspan x="0" y="0">#563A2D</tspan></text>
  </g>
  <g>
    <rect class="cls-1" x="129.64" y="260.65" width="51.96" height="45.7"/>
    <text class="cls-12" transform="translate(133.55 302.13)"><tspan x="0" y="0">#B16A40</tspan></text>
  </g>
  <g>
    <rect class="cls-8" x="129.64" y="312.3" width="51.96" height="45.7"/>
    <text class="cls-12" transform="translate(134.7 352.8)"><tspan x="0" y="0">#BF9255</tspan></text>
  </g>
  <g>
    <rect class="cls-10" x="129.64" y="366.46" width="51.96" height="45.7"/>
    <text class="cls-12" transform="translate(134.7 408.07)"><tspan x="0" y="0">#E0AB78</tspan></text>
  </g>
  <g>
    <rect class="cls-7" x="129.64" y="416.54" width="51.96" height="45.7"/>
    <text class="cls-12" transform="translate(133.55 456.44)"><tspan x="0" y="0">#E1C4A</tspan><tspan class="cls-11" x="37.25" y="0">A</tspan></text>
  </g>
</svg>